<?xml version="1.0" standalone="no"?>
<!DOCTYPE svg PUBLIC "-//W3C//DTD SVG 20010904//EN" "http://www.w3.org/TR/2001/REC-SVG-20010904/DTD/svg10.dtd">
<svg version="1.0" xmlns="http://www.w3.org/2000/svg"
  width="998.000000pt" height="885.000000pt" viewBox="0 0 998.000000 885.000000"
  preserveAspectRatio="xMidYMid meet">

  <g transform="translate(0.000000,885.000000) scale(0.100000,-0.100000)"
    fill="#323232" stroke="none">
    <path
      d="M2485 8840 c-443 -40 -854 -177 -1214 -405 -170 -108 -299 -212 -461
-375 -230 -229 -374 -428 -514 -711 -129 -260 -211 -521 -258 -822 -29 -189
-31 -560 -5 -742 75 -511 268 -959 583 -1355 37 -47 249 -267 469 -490 1361
-1372 3908 -3935 3910 -3935 2 0 2549 2563 3910 3935 220 223 432 443 469 490
316 397 513 856 583 1360 24 174 24 540 -1 705 -117 801 -531 1467 -1185 1906
-145 97 -396 225 -554 283 -798 293 -1708 185 -2411 -286 -166 -111 -278 -209
-546 -474 l-265 -263 -265 262 c-288 286 -358 346 -543 471 -341 230 -732 377
-1140 431 -148 19 -431 26 -562 15z" />
  </g>
</svg>