<?xml version="1.0" standalone="no"?>
<!DOCTYPE svg PUBLIC "-//W3C//DTD SVG 20010904//EN"
 "http://www.w3.org/TR/2001/REC-SVG-20010904/DTD/svg10.dtd">
<svg version="1.0" xmlns="http://www.w3.org/2000/svg"
 width="800.000000pt" height="980.000000pt" viewBox="0 0 800.000000 980.000000"
 preserveAspectRatio="xMidYMid meet">

<g transform="translate(0.000000,980.000000) scale(0.100000,-0.100000)"
fill="#323232" stroke="none">
<path d="M3380 9790 c-160 -16 -331 -80 -465 -175 -147 -105 -289 -299 -339
-465 -29 -95 -49 -859 -25 -969 21 -99 138 -169 299 -178 98 -6 171 6 250 43
70 32 118 78 131 126 13 49 28 347 29 558 1 240 12 272 113 324 l56 29 600 -2
c330 -1 606 -4 613 -7 22 -9 98 -110 110 -146 6 -19 13 -182 18 -388 4 -244
11 -364 19 -385 45 -109 217 -169 413 -145 111 13 177 40 222 90 56 62 59 96
53 531 -6 443 -7 454 -92 624 -108 219 -240 346 -483 468 l-144 71 -641 2
c-353 2 -685 -2 -737 -6z"/>
<path d="M2012 9424 c-860 -202 -1424 -480 -1738 -857 -91 -110 -132 -174
-180 -285 -70 -163 -101 -407 -91 -722 15 -442 81 -620 328 -892 l76 -83 11
-110 c6 -60 74 -724 151 -1475 77 -751 183 -1788 236 -2305 150 -1480 142
-1425 226 -1601 187 -393 592 -678 1243 -874 294 -88 733 -176 1006 -200 328
-30 1221 -21 1561 15 422 44 931 172 1276 321 420 181 695 409 846 702 96 186
77 23 457 3745 l179 1759 94 116 c258 319 306 472 307 968 0 309 -27 507 -89
655 -39 93 -148 255 -229 341 -244 259 -773 532 -1363 703 -150 44 -497 121
-505 112 -3 -3 8 -46 26 -94 43 -120 67 -241 81 -413 7 -80 13 -146 14 -148 1
-1 94 -29 206 -61 327 -96 485 -154 670 -246 236 -119 400 -248 490 -388 52
-80 71 -143 71 -234 -1 -68 -5 -85 -38 -152 -71 -144 -298 -342 -516 -452
-941 -473 -2786 -639 -4308 -388 -771 127 -1412 371 -1693 644 -129 125 -183
243 -174 379 20 306 377 565 1102 799 94 30 199 63 234 73 78 21 84 32 106
205 18 139 43 255 81 374 14 44 27 86 29 93 6 18 -22 14 -183 -24z m-277
-3488 c67 -20 137 -67 207 -138 82 -82 105 -127 122 -238 39 -239 119 -956
241 -2155 41 -407 93 -911 115 -1120 59 -569 62 -609 64 -750 1 -147 -6 -167
-77 -224 -127 -101 -304 -75 -443 63 -88 88 -111 145 -135 325 -63 492 -322
2934 -399 3756 -32 348 -29 374 43 443 65 63 144 74 262 38z m4761 -2 c22 -8
56 -30 75 -50 59 -61 58 -84 -52 -1179 -96 -965 -260 -2489 -315 -2935 -30
-245 -49 -296 -143 -391 -84 -83 -169 -123 -276 -127 -76 -3 -83 -2 -134 30
-30 18 -68 53 -85 77 -30 42 -31 47 -29 136 6 270 268 2807 394 3820 46 369
52 388 154 491 72 72 184 132 266 143 60 9 85 6 145 -15z m-2311 -362 c22 -11
57 -38 78 -60 31 -31 41 -51 49 -98 7 -40 12 -737 15 -2165 l4 -2107 -49 -59
c-33 -39 -70 -70 -113 -93 -61 -33 -69 -35 -164 -35 -81 0 -109 4 -146 21 -64
30 -116 79 -146 138 -25 48 -26 62 -34 276 -19 539 -2 3905 20 4029 8 42 19
64 48 94 72 74 118 87 283 83 93 -2 123 -7 155 -24z"/>
</g>
</svg>
